# xmcd
#
# Track frame offsets:
#	150
#	1556
#	32852
#	76867
#	101084
#	118350
#	156187
#	188374
#	217295
#	257926
#	276015
#
# Disc length: 4073 seconds
#
# Revision: 1
# Processed by: cddbd v1.5.2PL0 Copyright (c) Steve Scherf et al.
# Submitted via: audiograbber 1.83.01
#
DISCID=910fe70b
DTITLE=Grateful Dead - 78-09-02 Giants Stadium, East Rutherford NJ
DYEAR=1900
DGENRE=
TTITLE0=Introduction
TTITLE1=Jack Straw
TTITLE2=Friend Of The Devil
TTITLE3=New Minglewood Blues
TTITLE4=Dire Wolf
TTITLE5=Looks Like Rain
TTITLE6=Stagger Lee
TTITLE7=I Need A Miracle
TTITLE8=Peggy-O
TTITLE9=Lazy Lightning
TTITLE10=Supplication
EXTD=
EXTT0=
EXTT1=
EXTT2=
EXTT3=
EXTT4=
EXTT5=
EXTT6=
EXTT7=
EXTT8=
EXTT9=
EXTT10=
PLAYORDER=
